<svg xmlns="http://www.w3.org/2000/svg" xmlns:xlink="http://www.w3.org/1999/xlink"><defs><symbol viewBox="0 1 512 511" id="exchange"><path d="M506.813 111.23L307.405 1.734a10.005 10.005 0 0 0-9.625 0l-75.16 41.27a10.029 10.029 0 0 0-4.293 2.36L98.378 111.23a9.994 9.994 0 0 0-5.187 8.766v132.43c-20.234 6.328-38.777 17.488-54.195 32.91C-1.19 325.52-11.438 386.809 13.5 437.844c2.422 4.96 8.41 7.02 13.371 4.594 4.965-2.426 7.02-8.415 4.598-13.375-21.188-43.364-12.48-95.438 21.668-129.586 21.355-21.356 49.746-33.118 79.945-33.118s58.59 11.762 79.945 33.118c21.352 21.351 33.114 49.742 33.114 79.941s-11.762 58.59-33.118 79.945c-34.148 34.149-86.222 42.856-129.585 21.668-4.961-2.426-10.95-.367-13.372 4.594-2.425 4.965-.37 10.953 4.594 13.375a132.667 132.667 0 0 0 58.336 13.5c34.543-.004 68.625-13.45 94.172-38.996 11.715-11.715 20.973-25.23 27.523-39.922l43.09 23.66c1.5.824 3.156 1.235 4.813 1.235s3.316-.41 4.812-1.235L506.812 347.75a10.003 10.003 0 0 0 5.188-8.766v-69.496c0-5.523-4.477-10-10-10s-10 4.477-10 10v63.578l-179.375 98.497V235.39l59.2-32.508v51.531a9.996 9.996 0 0 0 10 10c1.655 0 3.316-.41 4.82-1.238l42.73-23.52a9.992 9.992 0 0 0 5.176-8.758v-62.46L492 136.895v52.597c0 5.524 4.477 10 10 10s10-4.476 10-10v-69.496a9.998 9.998 0 0 0-5.188-8.766zm-204.22-89.324l178.63 98.09-56.348 30.942-178.629-98.09zm0 196.176l-178.628-98.086 58.414-32.078 178.633 98.086zm79.192-43.484L203.156 76.512l22.313-12.254 178.633 98.086zM227.168 285.336c-25.133-25.133-58.547-38.973-94.086-38.973-6.723 0-13.363.496-19.89 1.469V136.895l179.437 98.53v196.173l-31.145-17.102c3.067-11.289 4.653-23.062 4.653-35.078 0-35.54-13.84-68.953-38.969-94.082zm187.387-60.348l-22.73 12.512v-45.598l22.73-12.48zm0 0" /><path d="M502 219.441a10.08 10.08 0 0 0-7.07 2.93 10.073 10.073 0 0 0-2.93 7.07 10.07 10.07 0 0 0 2.93 7.067c1.86 1.863 4.441 2.93 7.07 2.93s5.21-1.067 7.07-2.93a10.07 10.07 0 0 0 2.93-7.067c0-2.632-1.07-5.21-2.93-7.07a10.08 10.08 0 0 0-7.07-2.93zm0 0M99.457 389.418a9.973 9.973 0 0 0 7.07-2.926c3.907-3.906 3.907-10.238 0-14.144l-6.925-6.93h59.101c14.336 0 26 11.664 26 26s-11.664 26-26 26h-35.02c-5.523 0-10 4.477-10 10 0 5.52 4.477 9.996 10 9.996h35.02c25.363 0 46-20.633 46-45.996s-20.637-45.996-46-45.996H99.602l6.925-6.93c3.907-3.906 3.907-10.238 0-14.144-3.902-3.903-10.234-3.903-14.14 0l-24 24c-3.903 3.906-3.903 10.238 0 14.144l24 23.996a9.968 9.968 0 0 0 7.07 2.93zm0 0M46.074 476.45a9.953 9.953 0 0 1-7.64-3.56l-.02-.023c-3.555-4.226-3.008-10.531 1.219-14.086 4.226-3.558 10.535-3.011 14.09 1.215 3.55 4.23 3.015 10.547-1.211 14.102a9.979 9.979 0 0 1-6.438 2.351zm0 0" /></symbol><symbol viewBox="0 0 512 512" id="facebook"><path d="M288 176v-64c0-17.664 14.336-32 32-32h32V0h-64c-53.024 0-96 42.976-96 96v80h-64v80h64v256h96V256h64l32-80h-96z" /></symbol><symbol viewBox="0 0 511 511.9" id="instagram"><path d="M510.95 150.5c-1.2-27.2-5.598-45.898-11.9-62.102-6.5-17.199-16.5-32.597-29.6-45.398-12.802-13-28.302-23.102-45.302-29.5-16.296-6.3-34.898-10.7-62.097-11.898C334.648.3 325.949 0 256.449 0s-78.199.3-105.5 1.5c-27.199 1.2-45.898 5.602-62.097 11.898-17.204 6.5-32.602 16.5-45.403 29.602-13 12.8-23.097 28.3-29.5 45.3-6.3 16.302-10.699 34.9-11.898 62.098C.75 177.801.449 186.5.449 256s.301 78.2 1.5 105.5c1.2 27.2 5.602 45.898 11.903 62.102 6.5 17.199 16.597 32.597 29.597 45.398 12.801 13 28.301 23.102 45.301 29.5 16.3 6.3 34.898 10.7 62.102 11.898 27.296 1.204 36 1.5 105.5 1.5s78.199-.296 105.5-1.5c27.199-1.199 45.898-5.597 62.097-11.898a130.934 130.934 0 0 0 74.903-74.898c6.296-16.301 10.699-34.903 11.898-62.102 1.2-27.3 1.5-36 1.5-105.5s-.102-78.2-1.3-105.5zm-46.098 209c-1.102 25-5.301 38.5-8.801 47.5-8.602 22.3-26.301 40-48.602 48.602-9 3.5-22.597 7.699-47.5 8.796-27 1.204-35.097 1.5-103.398 1.5s-76.5-.296-103.403-1.5c-25-1.097-38.5-5.296-47.5-8.796C94.551 451.5 84.45 445 76.25 436.5c-8.5-8.3-15-18.3-19.102-29.398-3.5-9-7.699-22.602-8.796-47.5-1.204-27-1.5-35.102-1.5-103.403s.296-76.5 1.5-103.398c1.097-25 5.296-38.5 8.796-47.5C61.25 94.199 67.75 84.1 76.352 75.898c8.296-8.5 18.296-15 29.398-19.097 9-3.5 22.602-7.7 47.5-8.801 27-1.2 35.102-1.5 103.398-1.5 68.403 0 76.5.3 103.403 1.5 25 1.102 38.5 5.3 47.5 8.8 11.097 4.098 21.199 10.598 29.398 19.098 8.5 8.301 15 18.301 19.102 29.403 3.5 9 7.699 22.597 8.8 47.5 1.2 27 1.5 35.097 1.5 103.398s-.3 76.301-1.5 103.301zm0 0" /><path d="M256.45 124.5c-72.598 0-131.5 58.898-131.5 131.5s58.902 131.5 131.5 131.5c72.6 0 131.5-58.898 131.5-131.5s-58.9-131.5-131.5-131.5zm0 216.8c-47.098 0-85.302-38.198-85.302-85.3s38.204-85.3 85.301-85.3c47.102 0 85.301 38.198 85.301 85.3s-38.2 85.3-85.3 85.3zm0 0M423.852 119.3c0 16.954-13.747 30.7-30.704 30.7-16.953 0-30.699-13.746-30.699-30.7 0-16.956 13.746-30.698 30.7-30.698 16.956 0 30.703 13.742 30.703 30.699zm0 0" /></symbol><symbol viewBox="0 0 489.4 489.4" id="keyboard"><path d="M461.6 89.6H27.8C12.5 89.6 0 102 0 117.4V372c0 15.3 12.4 27.8 27.8 27.8h433.8c15.3 0 27.8-12.4 27.8-27.8V117.4c-.1-15.4-12.5-27.8-27.8-27.8zM305.9 148c0-3.8 3.1-6.9 6.9-6.9h28.3c3.8 0 6.9 3.1 6.9 6.9v27.8c0 3.8-3.1 6.9-6.9 6.9h-28.3c-3.8 0-6.9-3.1-6.9-6.9V148zm-34.4 75.5h28.3c3.8 0 6.9 3.1 6.9 6.9v27.8c0 3.8-3.1 6.9-6.9 6.9h-28.3c-3.8 0-6.9-3.1-6.9-6.9v-27.8c0-3.8 3.1-6.9 6.9-6.9zM223.7 148c0-3.8 3.1-6.9 6.9-6.9h28.3c3.8 0 6.9 3.1 6.9 6.9v27.8c0 3.8-3.1 6.9-6.9 6.9h-28.3c-3.8 0-6.9-3.1-6.9-6.9V148zm-34.5 75.5h28.3c3.8 0 6.9 3.1 6.9 6.9v27.8c0 3.8-3.1 6.9-6.9 6.9h-28.3c-3.8 0-6.9-3.1-6.9-6.9v-27.8c0-3.8 3.1-6.9 6.9-6.9zM141.4 148c0-3.8 3.1-6.9 6.9-6.9h28.3c3.8 0 6.9 3.1 6.9 6.9v27.8c0 3.8-3.1 6.9-6.9 6.9h-28.3c-3.8 0-6.9-3.1-6.9-6.9V148zm-82.7 0c0-3.8 3.1-6.9 6.9-6.9h28.3c3.8 0 6.9 3.1 6.9 6.9v27.8c0 3.8-3.1 6.9-6.9 6.9H65.6c-3.8 0-6.9-3.1-6.9-6.9V148zm42.1 193.4c0 3.8-3.1 6.9-6.9 6.9H65.6c-3.8 0-6.9-3.1-6.9-6.9v-27.8c0-3.8 3.1-6.9 6.9-6.9h28.3c3.8 0 6.9 3.1 6.9 6.9v27.8zm34-76.3h-28.3c-3.8 0-6.9-3.1-6.9-6.9v-27.8c0-3.8 3.1-6.9 6.9-6.9h28.3c3.8 0 6.9 3.1 6.9 6.9v27.8c0 3.8-3.1 6.9-6.9 6.9zM348 341.4c0 3.8-3.1 6.9-6.9 6.9H148.4c-3.8 0-6.9-3.1-6.9-6.9v-27.8c0-3.8 3.1-6.9 6.9-6.9h192.7c3.8 0 6.9 3.1 6.9 6.9v27.8zm34-76.3h-28.3c-3.8 0-6.9-3.1-6.9-6.9v-27.8c0-3.8 3.1-6.9 6.9-6.9H382c3.8 0 6.9 3.1 6.9 6.9v27.8c0 3.8-3.1 6.9-6.9 6.9zm48.7 76.3c0 3.8-3.1 6.9-6.9 6.9h-28.3c-3.8 0-6.9-3.1-6.9-6.9v-27.8c0-3.8 3.1-6.9 6.9-6.9h28.3c3.8 0 6.9 3.1 6.9 6.9v27.8zm0-165.6c0 3.8-3.1 6.9-6.9 6.9h-28.3c-3.8 0-6.9-3.1-6.9-6.9V148c0-3.8 3.1-6.9 6.9-6.9h28.3c3.8 0 6.9 3.1 6.9 6.9v27.8z" /></symbol><symbol viewBox="0 0 512 512" id="market"><path d="M437 351a15 15 0 0 0 14.23-10.256l60-180A15.002 15.002 0 0 0 497 141H119.707l-10.4-62.398C105.676 56.814 87.008 41 64.919 41H15C6.716 41 0 47.716 0 56s6.716 15 15 15h49.919a14.953 14.953 0 0 1 14.796 12.534L122 337.241V366c0 21.651 15.371 39.775 35.772 44.045-5.169 6.428-8.272 14.584-8.272 23.455 0 20.677 16.823 37.5 37.5 37.5s37.5-16.823 37.5-37.5a37.297 37.297 0 0 0-7.521-22.5H357.02a37.303 37.303 0 0 0-7.521 22.5c0 20.677 16.823 37.5 37.5 37.5s37.5-16.823 37.5-37.5a37.297 37.297 0 0 0-7.521-22.5H437c8.284 0 15-6.716 15-15s-6.716-15-15-15H167c-8.271 0-15-6.729-15-15v-15zm-60-180h99.188l-10 30H377zm0 60h79.188l-10 30H377zm0 60h59.188l-10 30H377zm-75-120h45v30h-45zm0 60h45v30h-45zm0 60h45v30h-45zm-75-120h45v30h-45zm0 60h45v30h-45zm0 60h45v30h-45zM124.707 171H197v30h-67.293zm10 60H197v30h-57.293zm15 90l-5-30H197v30z" /></symbol><symbol viewBox="0 0 511.999 511.999" id="search"><path d="M508.874 478.708L360.142 329.976c28.21-34.827 45.191-79.103 45.191-127.309C405.333 90.917 314.416 0 202.666 0S0 90.917 0 202.667s90.917 202.667 202.667 202.667c48.206 0 92.482-16.982 127.309-45.191l148.732 148.732c4.167 4.165 10.919 4.165 15.086 0l15.081-15.082c4.165-4.166 4.165-10.92-.001-15.085zM202.667 362.667c-88.229 0-160-71.771-160-160s71.771-160 160-160 160 71.771 160 160-71.771 160-160 160z" /></symbol><symbol viewBox="0 0 512 512" id="twitter"><path d="M512 97.248c-19.04 8.352-39.328 13.888-60.48 16.576 21.76-12.992 38.368-33.408 46.176-58.016-20.288 12.096-42.688 20.64-66.56 25.408C411.872 60.704 384.416 48 354.464 48c-58.112 0-104.896 47.168-104.896 104.992 0 8.32.704 16.32 2.432 23.936-87.264-4.256-164.48-46.08-216.352-109.792-9.056 15.712-14.368 33.696-14.368 53.056 0 36.352 18.72 68.576 46.624 87.232-16.864-.32-33.408-5.216-47.424-12.928v1.152c0 51.008 36.384 93.376 84.096 103.136-8.544 2.336-17.856 3.456-27.52 3.456-6.72 0-13.504-.384-19.872-1.792 13.6 41.568 52.192 72.128 98.08 73.12-35.712 27.936-81.056 44.768-130.144 44.768-8.608 0-16.864-.384-25.12-1.44C46.496 446.88 101.6 464 161.024 464c193.152 0 298.752-160 298.752-298.688 0-4.64-.16-9.12-.384-13.568 20.832-14.784 38.336-33.248 52.608-54.496z" /></symbol><symbol viewBox="0 0 511.962 511.962" id="vk"><path d="M507.399 370.471c-1.376-2.304-9.888-20.8-50.848-58.816-42.88-39.808-37.12-33.344 14.528-102.176 31.456-41.92 44.032-67.52 40.096-78.464-3.744-10.432-26.88-7.68-26.88-7.68l-76.928.448s-5.696-.768-9.952 1.76c-4.128 2.496-6.784 8.256-6.784 8.256s-12.192 32.448-28.448 60.032c-34.272 58.208-48 61.28-53.6 57.664-13.024-8.416-9.76-33.856-9.76-51.904 0-56.416 8.544-79.936-16.672-86.016-8.384-2.016-14.528-3.36-35.936-3.584-27.456-.288-50.72.096-63.872 6.528-8.768 4.288-15.52 13.856-11.392 14.4 5.088.672 16.608 3.104 22.72 11.424 7.904 10.72 7.616 34.848 7.616 34.848s4.544 66.4-10.592 74.656c-10.4 5.664-24.64-5.888-55.2-58.72-15.648-27.04-27.488-56.96-27.488-56.96s-2.272-5.568-6.336-8.544c-4.928-3.616-11.84-4.768-11.84-4.768l-73.152.448s-10.976.32-15.008 5.088c-3.584 4.256-.288 13.024-.288 13.024s57.28 133.984 122.112 201.536c59.488 61.92 127.008 57.856 127.008 57.856h30.592s9.248-1.024 13.952-6.112c4.352-4.672 4.192-13.44 4.192-13.44s-.608-41.056 18.464-47.104c18.784-5.952 42.912 39.68 68.48 57.248 19.328 13.28 34.016 10.368 34.016 10.368l68.384-.96s35.776-2.208 18.816-30.336z" /></symbol><symbol viewBox="0 0 682.667 682" id="youtube"><path d="M626.813 64.035c-7.375-27.418-28.993-49.031-56.407-56.414C520.324-6.082 319.992-6.082 319.992-6.082s-200.324 0-250.406 13.184c-26.887 7.375-49.031 29.52-56.406 56.933C0 114.113 0 217.97 0 217.97s0 104.379 13.18 153.933c7.382 27.414 28.992 49.028 56.41 56.41C120.195 442.02 320 442.02 320 442.02s200.324 0 250.406-13.184c27.418-7.379 49.032-28.992 56.414-56.406 13.176-50.082 13.176-153.934 13.176-153.934s.527-104.383-13.183-154.46zM256.21 313.915V122.022l166.586 95.946zm0 0" /></symbol></defs></svg>