<?xml version="1.0" encoding="utf-8"?><svg xmlns="http://www.w3.org/2000/svg" xmlns:xlink="http://www.w3.org/1999/xlink"><symbol viewBox="0 0 306.77 512" id="dress" xmlns="http://www.w3.org/2000/svg"><title>dress</title><path d="M306.74 503.26c0-.48-4.48-48.27-18.33-110.05-22.79-101.67-53.49-164.32-75.7-199.4v-31l25.45-110.23a8 8 0 0 0 0-3.37l-8.5-42.76A8 8 0 0 0 221.8 0h-25.65a8 8 0 0 0-8 8v41a80.34 80.34 0 0 0-34.42 28.3.59.59 0 0 1-.69 0A80.33 80.33 0 0 0 118.65 49V8a8 8 0 0 0-8-8H84.98a8 8 0 0 0-7.86 6.44L68.57 49.2a8 8 0 0 0 0 3.37l25.45 110.28v31c-22.21 35.08-52.91 97.73-75.7 199.4C4.52 455 .08 502.78.04 503.26a8 8 0 0 0 8 8.74h290.72a8 8 0 0 0 7.98-8.74zM204.16 16h11.07l5.23 26.18a88.2 88.2 0 0 0-16.3 1.82V16zM91.55 16h11.06v28a88 88 0 0 0-16.3-1.77zm-5.16 42.26c12.69.28 36.7 4.3 53.54 28.26a16.55 16.55 0 0 0 26.92 0c17-24.12 40.88-28.07 53.55-28.3l-22.09 95.7h-89.85zM196.68 170v18.17H110.1V170h86.58zM16.95 496c4.44-37.79 25.67-189.61 89.55-291.81h11.89l-15.68 101.9a8 8 0 0 0 6.7 9.14 8.16 8.16 0 0 0 1.23.09 8 8 0 0 0 7.91-6.8l16.06-104.37h10.78v163a8 8 0 1 0 16 0v-163h10.76l16.06 104.37a8 8 0 0 0 7.91 6.8 8.15 8.15 0 0 0 1.23-.09 8 8 0 0 0 6.7-9.14l-15.66-101.93h11.89C264.12 306.3 285.39 458.17 289.82 496H16.95z"/></symbol><symbol viewBox="0 0 11.58 22.29" id="fb" xmlns="http://www.w3.org/2000/svg"><title>fb</title><path d="M11.58 3.7h-2.1c-1.65 0-2 .79-2 1.93v2.53h3.93l-.52 4h-3.4v10.17h-4.1V12.16H-.03v-4h3.42V5.24C3.39 1.85 5.47 0 8.49 0a26.2 26.2 0 0 1 3.05.16V3.7z" data-name="Слой 65"/></symbol><symbol viewBox="0 0 60 60" id="flag" xmlns="http://www.w3.org/2000/svg"><path d="M46.714 25l10.61-15.434A1.001 1.001 0 0 0 56.5 8h-30V4a1 1 0 0 0-1-1h-21V1a1 1 0 1 0-2 0v58a1 1 0 1 0 2 0V34h11.026a4.948 4.948 0 0 0-1.026 3c0 2.757 2.243 5 5 5h37a1.001 1.001 0 0 0 .824-1.566L46.714 25zM4.5 5h20v27h-20V5zm15 35c-1.654 0-3-1.346-3-3s1.346-3 3-3h6a1 1 0 0 0 1-1V10h28.099l-9.923 14.434a1.002 1.002 0 0 0 0 1.133L54.599 40H19.5z"/></symbol><symbol viewBox="0 0 58.365 58.365" id="home" xmlns="http://www.w3.org/2000/svg"><path d="M57.863 26.632L29.182 0 .502 26.632a1.001 1.001 0 0 0 1.361 1.466l3.319-3.082v33.349h48v-33.35l3.319 3.082a.995.995 0 0 0 .681.267 1 1 0 0 0 .681-1.732zM23.182 56.365v-16c0-3.309 2.691-6 6-6s6 2.691 6 6v16h-12zm28 0h-14v-16c0-4.411-3.589-8-8-8s-8 3.589-8 8v16h-14V23.158l22-20.429 22 20.429v33.207z"/></symbol><symbol viewBox="0 0 20.58 20.58" id="instagram" xmlns="http://www.w3.org/2000/svg"><title>instagram</title><path d="M20.52 14.54a5.7 5.7 0 0 1-6 6c-1.42.08-2.83.07-4.25.07s-2.83 0-4.25-.07a5.7 5.7 0 0 1-6-6c-.08-1.42-.07-2.83-.07-4.25s0-2.83.07-4.25a5.7 5.7 0 0 1 6-6c1.42-.08 2.83-.07 4.25-.07s2.83 0 4.25.07a5.7 5.7 0 0 1 6 6c.08 1.42.07 2.83.07 4.25s.01 2.83-.07 4.25zM4.23 2.24a3.51 3.51 0 0 0-2 2c-.54 1.35-.42 4.57-.42 6.07s-.12 4.72.42 6.07a3.51 3.51 0 0 0 2 2c1.35.54 4.57.42 6.07.42s4.72.12 6.07-.42a3.51 3.51 0 0 0 2-2c.54-1.35.42-4.57.42-6.07s.12-4.72-.42-6.07a3.51 3.51 0 0 0-2-2c-1.35-.54-4.57-.42-6.07-.42s-4.72-.09-6.07.42zm6.07 13.3a5.28 5.28 0 1 1 5.28-5.28 5.27 5.27 0 0 1-5.29 5.31zm0-8.71a3.43 3.43 0 1 0 3.43 3.43 3.44 3.44 0 0 0-3.44-3.4zM15.79 6a1.23 1.23 0 1 1 1.23-1.23 1.23 1.23 0 0 1-1.23 1.26z" data-name="Слой 65"/></symbol><symbol id="sport" viewBox="0 0 100 100" xmlns="http://www.w3.org/2000/svg"><style>.fst0{fill:#fff}</style><path class="fst0" d="M71.9 52.3l-.6-2.7v-.2l-.6-2.9H78c.8 0 1.5-.4 1.5-1.2 0-.8-.7-1.2-1.5-1.2h-5.5c1.6-1.8 1.7-4.6 0-6.4L55.8 19.2c-.2-.3-.5-.5-.8-.7-.2-.2-.5-.4-.7-.6-3.2-2.3-7.7-1.5-10 1.7L31.6 37.8c-1.7 2.5-1.7 5.6-.2 8 .2.4.5.7.8 1l2.3 2.3.2.6L29.1 60c-2.6-1.2-5.4-1.8-8.5-1.8C9.3 58.2 0 67.5 0 78.8c0 11.4 9.2 20.6 20.6 20.7 10.4 0 19-7.6 20.4-17.6l1.8.1c.6 1.2 1.6 2.2 2.9 2.6.5.1.9.2 1.4.2 2.1 0 4-1.3 4.6-3.4l2.4-7.7L70.2 57l1 2.9c-7.3 3.2-12.4 10.4-12.4 18.9 0 11.4 9.2 20.6 20.6 20.6 11.4 0 20.6-9.2 20.6-20.6 0-11.4-9.2-20.6-20.6-20.7-1.9 0-3.7.2-5.5.7l-1.8-5.1-.1-.5m.3 10L78 79.5c.2.6.8 1 1.4 1 .2 0 .3 0 .5-.1.8-.3 1.2-1.1.9-1.9l-5.7-16.3c1.4-.4 2.8-.5 4.3-.5 9.5 0 17.2 7.8 17.2 17.2 0 9.5-7.7 17.2-17.2 17.2s-17.2-7.7-17.2-17.2c0-7 4.2-13 10.1-15.7zm-4.2-15.5H46.8L44 45l9.8-13.9L65.5 44c.6.6 1.3 1.1 2 1.3v.1l.6 2.3zm-17.7 3.6h18.3l.5 2.5L56 67.4l1.7-5.4c.5-1.7.1-3.6-1.2-4.8l-6.1-5.9zm-11.6 2l8.9 8.7-3.3 10.6-5.6-19.3zm-7.2 8.2l4.2-7.7 7 24.1-.2.7c0 .2-.1.3-.1.5L41 79v-.1c0-7.3-3.7-13.7-9.4-17.4zm6.2 17.2L23 77.6l7-13.1c4.7 3.1 7.7 8.3 7.8 14.2zm-34.4.1c0-9.5 7.7-17.2 17.2-17.2 2.4 0 4.7.5 6.8 1.4l-8.2 15.1c-.2.4-.2 1 0 1.4.2.4.7.7 1.2.8l17.1 1.3c-1.3 8.2-8.5 14.5-17 14.4-9.4.1-17.1-7.7-17.1-17.2z"/><circle class="fst0" cx="59.3" cy="8.2" r="7.7"/></symbol><symbol viewBox="0 0 21.11 17.15" id="twitter" xmlns="http://www.w3.org/2000/svg"><title>twitter</title><path d="M18.95 4.27v.56a12.32 12.32 0 0 1-19 10.37 9 9 0 0 0 1 .05 8.67 8.67 0 0 0 5.37-1.85 4.33 4.33 0 0 1-4-3 5.34 5.34 0 0 0 .82.07 4.58 4.58 0 0 0 1.14-.15A4.33 4.33 0 0 1 .81 6.07v-.05a4.36 4.36 0 0 0 2 .55A4.33 4.33 0 0 1 1.47.78a12.3 12.3 0 0 0 8.92 4.53 4.89 4.89 0 0 1-.11-1 4.33 4.33 0 0 1 7.49-3 8.51 8.51 0 0 0 2.75-1 4.31 4.31 0 0 1-1.9 2.38 8.68 8.68 0 0 0 2.49-.67 9.31 9.31 0 0 1-2.16 2.25z" data-name="Слой 65"/></symbol></svg>